<svg width="128" height="109" viewBox="0 0 128 109" fill="none" xmlns="http://www.w3.org/2000/svg">
<g clip-path="url(#clip0_47_447)">
<path d="M79.0362 39.4229C77.0479 14.5828 72.5744 11.246 68.8464 7.41498C63.6769 11.073 42.3777 41.4002 41.8806 65.3753V108.753H63.6272C75.0597 107.888 78.9119 97.0125 79.0362 90.7098V39.4229Z" fill="#FDC219" stroke="#FDC219"/>
<path d="M56.2955 0.247162H0.775146V20.2676C0.775089 27.0646 1.8669 36.0862 17.4002 36.9512H37.4336C40.5136 36.9512 41.7563 37.6927 41.9072 40.4116V65.2517C50.3573 47.085 59.553 16.9308 68.7487 7.41496C65.4912 1.35941 60.2454 0.370745 56.2955 0.247162Z" fill="#EF476F" stroke="#EF476F"/>
<path d="M84.4062 0.247158C75.5567 0.988672 71.2755 4.73733 68.8729 7.41495C76.2295 13.1492 78.7464 33.6558 79.0362 41.8946C79.1356 40.3127 81.1855 37.256 83.2612 36.4569C87.1135 34.9739 95.5901 35.0728 109.011 35.4683C123.026 35.0975 127.624 26.4467 127.278 19.1553V0.247158C115.763 0.535518 91.8356 -0.247156 84.4062 0.247158Z" fill="#06D6A0" stroke="#06D6A0"/>
</g>
<defs>
<clipPath id="clip0_47_447">
<rect width="127" height="109" fill="white" transform="translate(0.5)"/>
</clipPath>
</defs>
</svg>
